Patient4_TMGait_0pt2_01_left_14_GRF.mot
version=1
nRows=25
nColumns=19
inDegrees=no
endheader
time	F1x	F1y	F1z	M1x	M1y	M1z	F2x	F2y	F2z	M2x	M2y	M2z	EC1x	EC1y	EC1z	EC2x	EC2y	EC2z
31.91	-1.7632	0.72802	0.78445	-0.39748	0.2943	-1.0525	-24.4618	765.9566	-50.1215	278.2728	57.4264	676.6694	-0.0592	0.0182	-0.0073	-0.0462	0.0165	0.9585
31.9329	-1.1663	0.34498	0.56897	-0.21284	0.14466	-0.78555	-24.8061	772.0322	-49.2525	280.7682	56.6094	680.2256	-0.0592	0.0182	-0.0073	-0.0462	0.0165	0.9585
31.9559	-0.67249	-0.014997	0.38423	-0.043719	0.0079852	-0.588	-24.9454	780.9362	-48.1272	284.2236	55.3799	685.7619	-0.0592	0.0182	-0.0073	-0.0462	0.0165	0.9585
31.9788	-0.30555	-0.30876	0.24227	0.092909	-0.10231	-0.45453	-24.8206	792.5532	-46.8181	288.5649	53.7601	693.2187	-0.0592	0.0182	-0.0073	-0.0462	0.0165	0.9585
32.0017	-0.061129	-0.51689	0.14441	0.19225	-0.18281	-0.37044	-24.3812	806.0686	-45.4343	293.4905	51.8264	701.9676	-0.0592	0.0182	-0.0073	-0.0462	0.0165	0.9585
32.0246	0.082985	-0.64832	0.088974	0.25802	-0.23916	-0.32408	-23.6045	819.9628	-44.0454	298.4707	49.6524	710.8016	-0.0592	0.0182	-0.0073	-0.0462	0.0165	0.9585
32.0476	0.15523	-0.72783	0.070663	0.29986	-0.28029	-0.31095	-22.5025	832.3273	-42.6441	302.8494	47.2651	718.1948	-0.0592	0.0182	-0.0073	-0.0462	0.0165	0.9585
32.0705	0.17712	-0.79242	0.079701	0.33171	-0.31218	-0.33618	-21.0975	841.2425	-41.1897	305.9591	44.6641	722.6115	-0.0592	0.0182	-0.0073	-0.0462	0.0165	0.9585
32.0934	0.16123	-0.88311	0.10683	0.36986	-0.34003	-0.4158	-19.4283	845.1022	-39.6599	307.2252	41.8657	722.7829	-0.0592	0.0182	-0.0073	-0.0462	0.0165	0.9585
32.1164	0.11616	-1.04	0.14487	0.43107	-0.36842	-0.57227	-17.5689	842.9329	-38.0935	306.2809	38.9496	717.9757	-0.0592	0.0182	-0.0073	-0.0462	0.0165	0.9585
32.1393	0.045825	-1.3018	0.18672	0.53115	-0.40025	-0.83134	-15.5922	834.7023	-36.5786	303.0946	36.0401	708.2295	-0.0592	0.0182	-0.0073	-0.0462	0.0165	0.9585
32.1622	-0.04502	-1.7042	0.22373	0.683	-0.43394	-1.2184	-13.5273	821.383	-35.2216	298.0086	33.2639	694.3831	-0.0592	0.0182	-0.0073	-0.0462	0.0165	0.9585
32.1851	-0.14688	-2.2649	0.24678	0.89083	-0.45945	-1.7466	-11.3526	804.6828	-34.1122	291.6502	30.7175	677.8341	-0.0592	0.0182	-0.0073	-0.0462	0.0165	0.9585
32.2081	-0.24143	-2.9645	0.24907	1.1452	-0.46659	-2.4036	-9.0016	786.6681	-33.2937	284.7964	28.4428	660.2249	-0.0592	0.0182	-0.0073	-0.0462	0.0165	0.9585
32.231	-0.30183	-3.7267	0.22168	1.4178	-0.43985	-3.1241	-6.4062	769.3866	-32.7571	278.2294	26.4325	643.1604	-0.0592	0.0182	-0.0073	-0.0462	0.0165	0.9585
32.2539	-0.29225	-4.3962	0.15074	1.6508	-0.35444	-3.7693	-3.5487	754.5276	-32.4585	272.6025	24.6597	627.9568	-0.0592	0.0182	-0.0073	-0.0462	0.0165	0.9585
32.2769	-0.16799	-4.7126	0.018621	1.7468	-0.17741	-4.1058	-0.46155	743.2092	-32.3411	268.3522	23.0941	615.4824	-0.0592	0.0182	-0.0073	-0.0462	0.0165	0.9585
32.2998	0.12046	-4.2833	-0.19486	1.5602	0.13189	-3.7808	2.8082	735.9031	-32.3546	265.6644	21.7059	606.0994	-0.0592	0.0182	-0.0073	-0.0462	0.0165	0.9585
32.3227	0.62824	-2.5736	-0.50818	0.8943	0.61735	-2.305	6.2051	732.4357	-32.4568	264.4746	20.4675	599.6734	-0.0592	0.0182	-0.0073	-0.0462	0.0165	0.9585
32.3456	1.4055	1.0727	-0.92618	-0.49099	1.3076	0.92997	9.6401	732.0161	-32.6145	264.4769	19.3646	595.6065	-0.0592	0.0182	-0.0073	-0.0462	0.0165	0.9585
32.3686	2.4769	7.3615	-1.4252	-2.8539	2.1907	6.5915	12.9895	733.3584	-32.8102	265.1707	18.4047	592.9358	-0.0592	0.0182	-0.0073	-0.0462	0.0165	0.9585
32.3915	3.8152	16.9074	-1.9406	-6.4168	3.1933	15.2813	16.094	734.9037	-33.0231	265.9465	17.6045	590.5159	-0.0592	0.0182	-0.0073	-0.0462	0.0165	0.9585
32.4144	5.2887	30.0166	-2.3499	-11.2828	4.1465	27.3358	18.7824	735.0454	-33.2113	266.1749	16.9694	587.1917	-0.0592	0.0182	-0.0073	-0.0462	0.0165	0.9585
32.4374	6.5199	46.4576	-2.4663	-17.3494	4.7267	42.6096	20.9258	732.3494	-33.3208	265.2918	16.4834	581.9459	-0.0592	0.0182	-0.0073	-0.0462	0.0165	0.9585
32.4603	6.9696	65.4142	-2.0538	-24.2935	4.5036	60.4363	22.4705	725.7387	-33.3024	262.8698	16.1068	574.0167	-0.0592	0.0182	-0.0073	-0.0462	0.0165	0.9585
